<svg version="1.0" xmlns="http://www.w3.org/2000/svg" width="800" height="764" viewBox="0 0 600 573"><path d="M271 13.4c-14.6 7.2-43.9 21.6-65 32-21.2 10.5-65 32.1-97.5 48.1-32.4 16-69.9 34.5-83.2 41L1 146.4V216h33v206h526V216h39V146.3l-13.7-6.6c-7.6-3.6-48.2-23.3-90.3-43.7-42.1-20.5-83.2-40.5-91.5-44.5-36.1-17.4-47.5-23-72-35-14.3-7-27.8-13.5-30-14.4l-4-1.8L271 13.4zm93 90.1c15.7 8.1 42.2 21.8 59 30.5 16.8 8.7 39.7 20.6 51 26.4l20.5 10.5.3 94.6.2 94.5-198.2-.2-198.3-.3-.2-94-.3-94 10.8-5.5c5.9-3 29.4-15.1 52.2-26.7 22.8-11.7 62.9-32.2 89-45.6l47.5-24.4 19 9.7c10.5 5.4 31.8 16.4 47.5 24.5z"/><path d="m204.2 204.2.3 33.3 92.3.3 92.2.2v-67H204l.2 33.2zM204.7 266.7c-.4.3-.7 15.4-.7 33.5V333h185v-67h-91.8c-50.5 0-92.2.3-92.5.7zM90.6 460.5c-5.6 2-10.4 7.1-12.1 12.9-4.5 15.1 1.9 28.8 14.8 31.6 4.8 1.1 6.6 1.1 11-.2 5-1.3 5.5-1.3 8 .6l2.7 2 2.5-2.4 2.5-2.4-2.2-2.3c-2.1-2.3-2.1-2.3-.2-6.5 2.7-6.1 2.5-17.8-.4-23.4-5-9.7-15.8-13.8-26.6-9.9zm15.8 10.5c2.8 2.7 3.1 3.7 3.4 10.2.3 8.8-.7 11.1-3.7 8.3-2.1-1.8-2.2-1.8-4.6.5l-2.5 2.4 2.1 2.2 2.1 2.2-2.1.7c-6 1.9-12.5-3.2-14-10.8-.9-5.1.1-12 2.3-14.9 4.1-5.5 12-5.9 17-.8zM328.4 461.4c-8.1 3.8-11.4 10-11.4 21.6 0 14 7.8 22.3 21 22.4 5.7.1 7.3-.3 11.5-2.9 6.5-4.1 8.9-8.8 9.3-18.8.4-8.1-.5-11.8-4.1-17.1-2.6-3.8-11-7.6-16.7-7.6-2.6 0-6.6 1-9.6 2.4zm15.7 7.9c3.8 2.5 5.8 7.1 5.8 13.2s-2 10.7-5.8 13.2c-4 2.7-7.1 2.9-11.1.8-4.4-2.3-6.4-6.9-6.4-14.5 0-7.2 1.8-11.1 6.3-13.5 3.8-2.1 7.3-1.8 11.2.8zM421.5 460.1c-7.6 2.2-11.7 11.8-8 18.8 1.8 3.7 5 5.2 15 7.6 6.5 1.5 10.5 3.7 10.5 5.7 0 .5-1.1 2-2.5 3.3-4.1 4.2-13.4 3-15.7-2-.9-2.1-1.8-2.5-5.6-2.5-4.3 0-4.4.1-3.7 2.7 2.2 9.2 11.9 13.8 23.8 11.3 9.3-1.9 14.3-9.5 11.7-17.4-1.5-4.7-5.1-6.9-14.4-9.1-8.4-2-11.6-3.8-11.6-6.5 0-6.2 13-6.6 15.9-.4.9 2 1.8 2.4 5.1 2.4 3.5 0 4-.3 4-2.3 0-8.8-13-15-24.5-11.6zM530.5 460.9c-8 3.7-12.5 11.4-12.5 21.5 0 12.7 6.3 21.1 17.2 23.1 4.7.9 8.9-.1 13.2-3l3.4-2.3.6 2.4c.5 1.9 1.3 2.4 3.6 2.4h3v-24h-18v3.5c0 3.5 0 3.5 4.5 3.5 3.7 0 4.5.3 4.5 1.9 0 2.8-4.4 6.9-8.3 7.6-4.5.9-9.7-1.5-12.1-5.6-2.4-4.1-2.4-14.7 0-18.7 2-3.6 6.3-6.2 9.9-6.2 3.6 0 8.2 2.6 9 5 .5 1.7 1.5 2 5.7 2s4.9-.3 4.4-1.6c-.3-.9-.6-1.9-.6-2.4 0-1.9-5.7-7.4-9.5-9.1-5.1-2.4-12.9-2.4-18 0zM37 482.5V505l16.8-.2 16.7-.3.3-3.8.3-3.7H46v-12h22.1l-.3-3.8-.3-3.7-10.7-.3-10.8-.3V468h23v-8H37v22.5zM127.4 461.5c-.3.8-.4 8.9-.3 17.9.4 18.3 1 20 8 24.1 4.9 2.9 16.1 2.8 21.1-.3 6-3.7 6.8-6.7 6.8-26.1V460h-8.8l-.3 16.6-.4 16.6-2.9 2.5c-2.4 2-3.6 2.4-6.5 1.9-6.3-1-6.6-1.8-6.9-20.6l-.3-17h-4.5c-3 0-4.6.5-5 1.5zM182.6 460.9c-.9 1.4-15.6 42.2-15.6 43.3 0 .5 2.1.8 4.8.6 4.6-.3 4.7-.4 6.2-4.6l1.4-4.2h16.4l1.4 4.2c1.4 4.1 1.7 4.3 5.8 4.6 2.3.2 4.6 0 5-.5.4-.4-2.7-10.5-6.9-22.3l-7.7-21.5-5.1-.3c-2.8-.2-5.4.1-5.7.7zm7.9 18.2c1.4 4.4 2.5 8.2 2.5 8.5 0 .2-2.2.4-5 .4-2.9 0-5-.5-5-1.1 0-1.1 4.4-15.9 4.7-15.9.1 0 1.4 3.6 2.8 8.1zM216 482.5V505h31v-9h-22v-36h-9v22.5zM273 482.5V505h9v-20h17v20.1l4.8-.3 4.7-.3v-44l-4.7-.3-4.8-.3V477h-17v-17h-9v22.5zM368 477.7c0 19.9.7 22.5 7.2 26 4.4 2.4 16 2.3 20.6-.1 6.5-3.4 7.2-6 7.2-25.9V460h-9v15.5c0 9.1-.4 16.4-1.1 17.8-1.1 2.5-4.7 4.7-7.4 4.7s-6.3-2.2-7.4-4.7c-.7-1.4-1.1-8.7-1.1-17.8V460h-9v17.7zM455.2 482.2l.3 22.3h9v-44l-4.8-.3-4.7-.3.2 22.3zM474 482.6v22.5l4.1-.3 4.1-.3-.1-15.5c-.1-8.5.2-15.1.6-14.7.4.5 4.6 7.4 9.3 15.5l8.5 14.7h9l.3-22.3.2-22.2h-8.9l-.3 15-.3 14.9L492 475l-8.5-15H474v22.6zM49.8 526.9c-5.2 1.7-9.4 5-11.8 9.3-2.2 3.7-2.5 5.6-2.5 13.3 0 7.9.3 9.5 2.7 13.5 8.1 13.8 30.6 12.8 37-1.8 3.7-8.3 2.2-22.8-3-28.5-4.4-4.9-16-7.8-22.4-5.8zm12 9.1c4 2.4 6.2 7.3 6.2 13.4 0 11.5-7.4 18-16.3 14.3-4.6-2-7.1-6.6-7.1-13.7-.1-6.9 1.9-11.7 5.8-14.1 4-2.4 7.3-2.4 11.4.1zM206 526.9c-5.5 1.8-9.1 4.4-11.8 8.3-2.5 3.8-2.7 4.9-2.7 14.3s.2 10.5 2.8 14.3c3.8 5.9 9.5 8.6 17.7 8.6 13.9 0 21-7.9 21-23.3 0-9.3-3.2-16-9.4-19.6-4.8-2.8-13.2-4.1-17.6-2.6zm10.6 8.6c6.6 2.7 9.3 13.7 5.5 22.2-3.2 7-10 9.2-16.1 5-8.3-5.6-7.7-22.6 1-26.9 4.3-2.2 5.1-2.2 9.6-.3zM93.4 528.3c-.2.7-.3 10.7-.2 22.2l.3 21h9l.3-7.8.3-7.7h6.5c3.5 0 8-.6 9.9-1.4 10.3-4.4 10-22.7-.5-26.3-4.9-1.7-24.9-1.7-25.6 0zM116 537c1.1 1.1 2 3.1 2 4.5 0 4.3-3.3 6.5-9.5 6.5H103v-13h5.5c4.2 0 6 .5 7.5 2zM143 549.4V572h9v-16h6.8c8 0 12.7-2 15.9-6.9 4.1-6.1 2.4-15.8-3.3-19.6-2.4-1.6-5.2-2-15.6-2.3l-12.8-.4v22.6zm21.4-13.3c2.9 1.3 4 4.7 2.7 8.2-1.2 3-2.9 3.7-9.7 3.7H152v-13h5c2.7 0 6 .5 7.4 1.1zM249 549.5V572h8.9l.3-8.8.3-8.7 6.8.1c3.9 0 7.3.6 8 1.3.7.6 1.4 4.4 1.7 8.4l.5 7.2 5.4.3c4.8.3 5.3.1 4.6-1.5-.5-1-1.1-5-1.4-9-.4-4.9-1.2-7.8-2.3-8.9-1.6-1.6-1.6-1.9.7-4.6 3.5-4.2 3.5-11.5-.1-15.7-3.4-4.1-7.7-5.1-21.6-5.1H249v22.5zm24.8-12.9c3.1 2.1 3 6.9-.2 8.9-1.7 1.1-4.2 1.5-8.8 1.3l-6.3-.3-.3-5.8-.3-5.7h6.8c4.6 0 7.6.5 9.1 1.6zM297 531v4h13l.2 18.2.3 18.3 4.8.3 4.7.3V535h13v-8h-36v4zM347 544.3c0 14.8.3 17.7 1.8 20.7 4.7 8.6 20.7 10.5 29.1 3.4 4.1-3.5 5.3-9.8 4.9-26.9l-.3-14-4.7-.3-4.8-.3v16.4c0 18.6-.6 20.3-7.1 21.3-2.9.5-4.1.1-6.5-1.9l-2.9-2.5-.3-16.6-.4-16.6H347v17.3zM400 549.6v22.5l4.3-.3 4.2-.3v-14.8c0-8.1.2-14.7.5-14.7s3.6 5.5 7.4 12.3c10.2 18 10 17.7 15.2 17.7h4.4v-45h-8.9l-.3 15-.3 14.9L418 542l-8.5-15H400v22.6zM452.4 528.3c-.2.7-.3 10.7-.2 22.2l.3 21 4.8.3 4.7.3V527h-4.5c-2.8 0-4.8.5-5.1 1.3zM475 531v4h13l.2 18.2.3 18.3 4.8.3 4.7.3V535h13v-8h-36v4zM522 527.9c0 .4 3.4 6.9 7.5 14.3l7.5 13.5V572h9v-8.8c0-4.8.4-9.2.9-9.8.4-.5 3.8-6.6 7.5-13.7l6.7-12.7h-10.8l-4.4 9.6-4.3 9.5-4.8-9.5-4.8-9.6h-5c-2.8 0-5 .4-5 .9z"/></svg>